<?xml version="1.0" encoding="UTF-8" standalone="no"?>
<svg
   id="svg"
   version="1.1"
   width="400"
   height="400"
   viewBox="0, 0, 400,400"
   sodipodi:docname="vector.svg"
   inkscape:export-filename="C:\dev\justrunmydebugger2\src-tauri\icons\StoreLogo.png"
   inkscape:export-xdpi="12"
   inkscape:export-ydpi="12"
   inkscape:version="1.1 (c68e22c387, 2021-05-23)"
   xmlns:inkscape="http://www.inkscape.org/namespaces/inkscape"
   xmlns:sodipodi="http://sodipodi.sourceforge.net/DTD/sodipodi-0.dtd"
   xmlns="http://www.w3.org/2000/svg"
   xmlns:svg="http://www.w3.org/2000/svg">
  <defs
     id="defs11" />
  <sodipodi:namedview
     id="namedview9"
     pagecolor="#ffffff"
     bordercolor="#666666"
     borderopacity="1.0"
     inkscape:pageshadow="2"
     inkscape:pageopacity="0.0"
     inkscape:pagecheckerboard="0"
     showgrid="false"
     inkscape:zoom="0.2575"
     inkscape:cx="-469.90291"
     inkscape:cy="-497.08738"
     inkscape:window-width="1299"
     inkscape:window-height="1032"
     inkscape:window-x="81"
     inkscape:window-y="33"
     inkscape:window-maximized="0"
     inkscape:current-layer="svgg" />
  <g
     id="svgg">
    <path
       id="path0"
       d="m 99.14236,244.15238 c 17.58,68.671 88.254,107.296 154.911,84.664 24.426,-8.293 45.896,-24.656 60.244,-45.914 43.906,-65.047 15.612,-152.98 -58.005,-180.27 -5.737,-2.126 -5.595,-2.118 -4.662,-0.277 5.419,10.697 10.284,27.21 12.404,42.109 l 0.356,2.5 2.508,1.875 c 39.498,29.53 43.465,90.052 8.234,125.626 -38.32661,38.69997 -101.7968,30.42096 -129.86672,-12.38459 -3.20594,-4.88894 -5.9501,-10.22826 -8.14228,-15.99941 l -0.977,-2.571 -7.189,0.124 c -11.151,0.192 -19.815,-1.088 -29.085,-4.295 l -1.796,-0.622 0.013,0.686 c 0.007,0.377 0.481,2.514 1.053,4.749 m 85.315,-23.386 c 4.124,21.711 28.8,32.749 47.279,21.148 22.769,-14.295 18.801,-48.188 -6.629,-56.629 -22.276,-7.394 -45.023,12.46 -40.65,35.481"
       stroke="none"
       fill="#24ccdc"
       fill-rule="evenodd"
       sodipodi:nodetypes="cccccccscsccccccccccc" />
    <path
       id="path1"
       d="m 75.275374,130.02253 c 2.22824,23.37516 17.73604,43.23679 39.500786,50.5909 1.82552,0.61686 1.77051,0.64928 1.11339,-0.65663 -2.53176,-5.02913 -5.31841,-14.67485 -5.87535,-20.33409 l -0.10018,-1.01909 -1.6276,-1.28332 c -23.054936,-18.17412 -20.032056,-54.34997 5.7339,-68.619644 22.11787,-12.249189 50.52951,-1.450299 58.75735,22.332484 0.085,0.24654 0.23377,0.26128 1.5937,0.15373 5.14356,-0.40616 10.68396,0.15519 15.38748,1.55981 0.96898,0.28976 1.78082,0.50832 1.80292,0.48573 0.0221,-0.0221 -0.2323,-1.13991 -0.56578,-2.48363 -7.36199,-29.671883 -36.08844,-48.751153 -66.28484,-44.024553 -22.36098,3.49976 -40.891646,19.85329 -47.289066,41.732463 -0.92184,3.15205 -1.48713,6.01728 -2.07648,10.51551 -0.1606,1.22781 -0.21364,9.54749 -0.0702,11.05033 m 43.300636,-3.45507 c 1.21995,12.7791 17.03077,18.35584 26.15099,9.22433 9.82252,-9.83431 2.97328,-26.31159 -10.9084,-26.24332 -9.27345,0.0452 -16.13202,7.70282 -15.24259,17.01899"
       stroke="none"
       fill="#fcc434"
       fill-rule="evenodd"
       style="stroke-width:0.491126" />
    <path
       id="path2"
       d="m 48.468515,268.58677 c 0.773,0.76 1.406,1.31 1.406,1.224 0,-0.086 -0.633,-0.777 -1.406,-1.536 -0.774,-0.759 -1.406,-1.31 -1.406,-1.224 0,0.086 0.632,0.777 1.406,1.536 m 4.297,4.234 1.328,1.235 -1.236,-1.328 c -1.148,-1.235 -1.42,-1.472 -1.42,-1.235 0,0.051 0.597,0.649 1.328,1.328 m 60.312005,-64.688 1.328,1.236 -1.235,-1.328 c -1.149,-1.236 -1.421,-1.472 -1.421,-1.236 0,0.051 0.598,0.649 1.328,1.328 m 21.797,-106.533 c 1.633,0 2.301,-0.053 1.484,-0.117 -0.816,-0.065 -2.152,-0.065 -2.968,0 -0.817,0.064 -0.149,0.117 1.484,0.117 m 0.313,115.652 c 0.773,0 1.089,-0.061 0.703,-0.135 -0.387,-0.075 -1.02,-0.075 -1.407,0 -0.386,0.074 -0.07,0.135 0.704,0.135 m 21.875,-8.821 c 0.687,-0.671 1.25,-1.291 1.25,-1.377 0,-0.086 -0.563,0.393 -1.25,1.065 -0.688,0.671 -1.25,1.291 -1.25,1.377 0,0.086 0.562,-0.393 1.25,-1.065 m 37.578,-82.176 1.64,1.551 -1.551,-1.64 c -0.852,-0.903 -1.591,-1.641 -1.64,-1.641 -0.233,0 0.026,0.29 1.551,1.73 m 30.078,196.588 c 2.062,0 2.865,-0.051 1.784,-0.112 -1.081,-0.061 -2.768,-0.061 -3.75,10e-4 -0.981,0.062 -0.097,0.112 1.966,0.111 m 0.312,-52.782 c 0.86,-0.003 1.174,-0.063 0.699,-0.135 -0.475,-0.072 -1.178,-0.07 -1.562,0.004 -0.385,0.074 0.004,0.133 0.863,0.131 m 22.11,-53.806 1.64,1.551 -1.551,-1.64 c -1.44,-1.525 -1.73,-1.784 -1.73,-1.551 0,0.049 0.738,0.788 1.641,1.64 m 58.769,111.082 c 0.054,0 0.511,-0.457 1.016,-1.015 l 0.918,-1.016 -1.016,0.918 c -0.947,0.856 -1.159,1.113 -0.918,1.113 m 5.625,-5.625 c 0.054,0 0.511,-0.457 1.016,-1.015 l 0.918,-1.016 -1.016,0.918 c -0.947,0.856 -1.159,1.113 -0.918,1.113 m 33.243,-78.203 c 0.079,-0.3 0.079,-0.793 0,-1.093 -0.079,-0.301 -0.143,-0.055 -0.143,0.546 0,0.602 0.064,0.848 0.143,0.547 m 0,-8.75 c 0.079,-0.3 0.079,-0.793 0,-1.093 -0.079,-0.301 -0.143,-0.055 -0.143,0.546 0,0.602 0.064,0.848 0.143,0.547"
       stroke="none"
       fill="#54c8e0"
       fill-rule="evenodd" />
    <path
       id="path3"
       d=""
       stroke="none"
       fill="#c4c88c"
       fill-rule="evenodd" />
    <path
       id="path4"
       d=""
       stroke="none"
       fill="#100c834"
       fill-rule="evenodd" />
    <path
       id="path0-6"
       d="m 331.58105,186.21599 c -17.58,-68.671 -88.254,-107.296009 -154.911,-84.664 -24.426,8.293 -45.896,24.656 -60.244,45.914 -43.906001,65.047 -15.612,152.98 58.005,180.27 5.737,2.126 5.595,2.118 4.662,0.277 -5.419,-10.697 -10.284,-27.21 -12.404,-42.109 l -0.356,-2.5 -2.508,-1.875 c -39.498,-29.53 -43.465,-90.052 -8.234,-125.626 38.32661,-38.69997 101.7968,-30.42096 129.86672,12.38459 3.20594,4.88894 5.9501,10.22826 8.14228,15.99941 l 0.977,2.571 7.189,-0.124 c 11.151,-0.192 19.815,1.088 29.085,4.295 l 1.796,0.622 -0.013,-0.686 c -0.007,-0.377 -0.481,-2.514 -1.053,-4.749 m -85.315,23.386 c -4.124,-21.711 -28.8,-32.749 -47.279,-21.148 -22.769,14.295 -18.801,48.188 6.629,56.629 22.276,7.394 45.023,-12.46 40.65,-35.481"
       stroke="none"
       fill="#24ccdc"
       fill-rule="evenodd"
       sodipodi:nodetypes="cccccccscsccccccccccc" />
    <rect
       style="fill:#3fe364;fill-opacity:1;fill-rule:evenodd"
       id="rect986"
       width="33.009708"
       height="33.009708"
       x="51.760883"
       y="198.70435" />
    <rect
       style="fill:#3fe364;fill-opacity:1;fill-rule:evenodd"
       id="rect986-9"
       width="33.009708"
       height="33.009708"
       x="197.48564"
       y="52.832806" />
    <rect
       style="fill:#e36e3f;fill-opacity:1;fill-rule:evenodd;stroke-width:0.708838"
       id="rect986-9-8"
       width="23.398556"
       height="23.398556"
       x="-141.7636"
       y="-109.7063"
       transform="scale(-1)" />
    <rect
       style="fill:#e36e3f;fill-opacity:1;fill-rule:evenodd;stroke-width:0.708838"
       id="rect986-9-8-1"
       width="23.398556"
       height="23.398556"
       x="-118.36505"
       y="-133.10486"
       transform="scale(-1)" />
    <rect
       style="fill:#3fe364;fill-opacity:1;fill-rule:evenodd"
       id="rect986-2"
       width="33.009708"
       height="33.009708"
       x="286.47501"
       y="-87.596939"
       transform="rotate(31.065165)" />
    <rect
       style="fill:#3fe364;fill-opacity:1;fill-rule:evenodd"
       id="rect986-6"
       width="33.009708"
       height="33.009708"
       x="285.33328"
       y="59.673447"
       transform="rotate(58.24052)" />
    <rect
       style="fill:#3fe364;fill-opacity:1;fill-rule:evenodd"
       id="rect986-8"
       width="33.009708"
       height="33.009708"
       x="278.32666"
       y="-251.87372"
       transform="rotate(61.436477)" />
    <rect
       style="fill:#3fe364;fill-opacity:1;fill-rule:evenodd"
       id="rect986-1"
       width="33.009708"
       height="33.009708"
       x="238.60335"
       y="284.08719"
       transform="rotate(14.551017)" />
    <rect
       style="fill:#000000;fill-opacity:1"
       id="rect11830"
       width="17.475729"
       height="42.718445"
       x="77.526543"
       y="44.847416"
       transform="rotate(-14.37428)" />
    <rect
       style="fill:#000000;fill-opacity:1"
       id="rect11830-1"
       width="17.475729"
       height="42.718445"
       x="-65.238045"
       y="50.237835"
       transform="rotate(-66.207399)"
       inkscape:transform-center-x="-8.7378641"
       inkscape:transform-center-y="2.9126214" />
  </g>
</svg>
